# xmcd CD database file
#
# Track frame offsets:
#	150
#	11807
#	26766
#	41447
#	55236
#	69812
#	83887
#	99905
#	114537
#	130228
#	145271
#	160648
#
# Disc length: 2337 seconds
#
# Revision: 0
# Processed by: cddbd v1.5.2PL0 Copyright (c) Steve Scherf et al.
# Submitted via: CDex 1.79
#
DISCID=94091f0c
DTITLE=Louis Armstrong - Memorial Part 1
DYEAR=1971
DGENRE=Jazz
TTITLE0=Muskrat Ramble
TTITLE1=St. James Infirmary
TTITLE2=West End Blues
TTITLE3=Cornet Chop Suey
TTITLE4=Basin Street Blues
TTITLE5=Twelfth Street Rag
TTITLE6=I Can't Give You Anything But Love
TTITLE7=Body And Soul
TTITLE8=Stardust
TTITLE9=Just A Gigolo
TTITLE10=When It's Sleepy Time Down South
TTITLE11=Chinatown My Chinatown
EXTD=YEAR: 1971
EXTT0=
EXTT1=
EXTT2=
EXTT3=
EXTT4=
EXTT5=
EXTT6=
EXTT7=
EXTT8=
EXTT9=
EXTT10=
EXTT11=
PLAYORDER=
